<svg xmlns="http://www.w3.org/2000/svg" fill="none" viewBox="0 0 24 24" id="Eleventy--Streamline-Svg-Logos" height="24" width="24">
  <desc>
    Eleventy Streamline Icon: https://streamlinehq.com
  </desc>
  <path fill="#f5b48c" d="M9.2763 2.63795c0.1967 0 0.353 0.1113 0.43725 0.29215 0.05905 0.12675 0.0849 0.287725 0.086125 0.489925l0.00005 0.01525v14.4625c-0.001175 0.26805 -0.0292 0.477475 -0.09055 0.635275 -0.085125 0.218975 -0.24755 0.360325 -0.4692 0.363975h-0.008675l-1.669375 -0.002025c-0.22565 0 -0.38805 -0.1445 -0.47145 -0.36735 -0.0586 -0.156625 -0.08535 -0.364775 -0.08645 -0.631975l-0.000025 -12.090375 -0.4495 0.113875 -0.179375 0.04495 -0.0524 0.012775 -0.026575 0.00615 -0.012525 0.0026 -0.004575 0.000775 -0.002375 0.000275 -0.001975 0.00005 -0.00055 -0.0001 -0.0003 -0.0002 -0.000075 -0.000225 0.0001 -0.000325 0.00025 -0.00035 0.002925 -0.002725c0.001025 -0.0011 0.001525 -0.002175 -0.0002 -0.002825l-0.00105 -0.000275 -0.005175 0.00025c-0.1894 0.0071 -0.347 -0.094225 -0.433225 -0.26775 -0.0616 -0.124 -0.088 -0.2824 -0.0892 -0.482925l-0.00005 -0.01475v-1.0489c0 -0.1878 0.030275 -0.345525 0.09875 -0.4741 0.078125 -0.1467 0.203175 -0.2474 0.360525 -0.28825l0.009475 -0.0024 0.010875 -0.002525 2.88665 -0.74295c0.041075 -0.010225 0.0864 -0.0157 0.135675 -0.017175l0.013525 -0.0003h0.012675Zm4.8205 -0.4260675c0.206875 0 0.3716 0.11591 0.462125 0.3069925 0.0654 0.1381 0.094475 0.315925 0.09575 0.539575l0.00005 0.0157v4.2504l0.00005 0.01015h1.2416c0.19505 0 0.355325 0.10055 0.44955 0.272075l0.004425 0.0082 0.00435 0.00835c0.068175 0.133325 0.098225 0.3036 0.09955 0.516125l0.00005 0.0149v0.590375c0 0.21625 -0.03015 0.3892 -0.100825 0.524275 -0.092125 0.176025 -0.252475 0.279975 -0.4479 0.283125l-0.0092 0.000075 -1.243675 0v5.573225l0.0001 0.0443 0.0003 0.043725 0.000525 0.043125 0.0007 0.04255 0.000425 0.021025 0.0013 0.051975 0.0016 0.051 0.001925 0.0501 0.002225 0.04915 0.001 0.0194 0.0021 0.03835 0.002325 0.03775 0.002525 0.03715 0.0027 0.03655 0.001425 0.01805 0.003025 0.03565 0.001575 0.0176 0.00165 0.01745 0.0034 0.03445c0.001175 0.011375 0.002375 0.02265 0.003625 0.033825l0.001875 0.0167 0.0039 0.032925c0.008425 0.068525 0.01815 0.13305 0.0292 0.193525l0.003725 0.020025 0.002725 0.0141 0.0053 0.02645c0.001775 0.0087 0.0036 0.0173 0.005425 0.0258l0.002775 0.012675 0.005625 0.024875 0.005775 0.02425 0.002925 0.0119 0.00595 0.0233c0.007725 0.029675 0.015775 0.05775 0.024075 0.084275l0.007175 0.022325c0.035025 0.1061 0.074425 0.1851 0.116075 0.23635 0.0773 0.095125 0.1453 0.1526 0.197675 0.175475l0.015825 0.00655c0.061875 0.02465 0.147575 0.038675 0.257725 0.039625l0.012325 0.00005h0.775025c0.1853 0 0.345625 0.07375 0.450775 0.218675 0.08735 0.1204 0.125675 0.273225 0.127375 0.4563l0.00005 0.0128v0.655325c0 0.2026 -0.039325 0.36965 -0.131025 0.4997 -0.106475 0.151025 -0.269525 0.22995 -0.458975 0.23265l-0.01 0.00005 -1.112325 0.00205c-0.308275 0 -0.577275 -0.021625 -0.81145 -0.0658 -0.250375 -0.04725 -0.505 -0.151175 -0.766575 -0.310375 -0.2723 -0.165775 -0.495575 -0.393175 -0.669325 -0.679625 -0.168825 -0.278325 -0.300775 -0.6539 -0.4003 -1.127675 -0.096875 -0.46125 -0.146375 -0.998675 -0.14805 -1.61065l-0.000025 -0.032275V9.5522l-0.5133 0c-0.19345 0 -0.353425 -0.0981 -0.44825 -0.2669l-0.004475 -0.0081 -0.004375 -0.0082c-0.069025 -0.131925 -0.0994 -0.3 -0.100825 -0.50925v-0.6054c0 -0.2195 0.029825 -0.3946 0.0996 -0.531025 0.091425 -0.1788 0.25205 -0.285325 0.44905 -0.28855l0.009275 -0.000075h0.513225l0.000075 -0.016725 0.1971 -4.256975 0.001125 -0.019075c0.0139 -0.22 0.049575 -0.39325 0.114725 -0.526325 0.090325 -0.18454 0.245225 -0.300175 0.44275 -0.3037175h1.1027Zm9.1825 5.1187425c0.18355 0 0.32615 0.10865 0.3998 0.276325 0.049975 0.11375 0.0709 0.256125 0.0709 0.433775 0 0.006525 0 0.01315 -0.000175 0.0199l-0.000225 0.010225 -0.000725 0.021025 -0.000475 0.010775 -0.00125 0.02215 -0.00075 0.01135 -0.00175 0.023325c-0.00155 0.019 -0.003425 0.03875 -0.005625 0.059325l-0.0017 0.0156 -0.003125 0.026675 -0.00345 0.027575 -0.0038 0.02845 -0.003 0.0217 -1.946775 10.135625 -0.0045 0.024925 -0.00975 0.0528 -0.00975 0.0523 -0.01475 0.077525 -0.0099 0.05105 -0.014925 0.075625 -0.010025 0.0498 -0.01005 0.0493 -0.0101 0.0488 -0.01015 0.0483 -0.0102 0.047775 -0.0154 0.07075 -0.010325 0.04655 -0.010375 0.046025 -0.0104 0.04555 -0.010475 0.045025 -0.010525 0.04455 -0.01055 0.044025 -0.0106 0.043525 -0.010675 0.043025 -0.0107 0.04255 -0.01075 0.042025 -0.0108 0.041525 -0.01085 0.041025 -0.0109 0.0405 -0.01095 0.040025 -0.011 0.039525 -0.01105 0.039 -0.0111 0.038525 -0.01115 0.038 -0.0112 0.037525 -0.011225 0.037 -0.0113 0.0365 -0.01135 0.036 -0.011375 0.0355 -0.01145 0.035 -0.011475 0.0345 -0.005775 0.017075 -0.01155 0.03375 -0.005825 0.016675 -0.0058 0.01655 -0.014575 0.04085 -0.014675 0.040075 -0.005875 0.0158 -0.011825 0.031225 -0.01185 0.030725c-0.0053 0.01355 -0.0106 0.02695 -0.0159 0.0402l-0.013925 0.034275 -0.014475 0.034875c-0.025425 0.060575 -0.051325 0.118825 -0.077725 0.17475l-0.01135 0.023825 -0.0152 0.03135 -0.01535 0.030825c-0.169225 0.336325 -0.3588 0.581075 -0.576625 0.734725 -0.2714 0.19315 -0.6178 0.2919 -1.036475 0.303725l-0.0188 0.000475h-0.115725c-0.65635 0 -1.135825 -0.180125 -1.41205 -0.560825l-0.0083 -0.0116 -0.007175 -0.01025 -0.003625 -0.004525c-0.078725 -0.0999 -0.1176 -0.237425 -0.13295 -0.4297l-0.001 -0.0129 -0.001675 -0.024675 -0.00075 -0.01255 -0.0007 -0.012675 -0.0012 -0.02585 -0.000525 -0.01315 -0.000475 -0.013275 -0.000925 -0.0339 -0.000625 -0.03485 -0.000175 -0.014225 -0.000175 -0.0289 0.000025 -0.031775 0.000075 -0.017575 0.00035 -0.03465 0.000275 -0.017075 0.000325 -0.016925 0.00085 -0.033375 0.0005 -0.016425 0.000575 -0.0163 0.00135 -0.032075 0.001575 -0.03145 0.001825 -0.030825c0.00065 -0.01015 0.00135 -0.020225 0.0021 -0.030175l0.001125 -0.014875 0.002475 -0.02925 0.002725 -0.028625c0.01285 -0.127425 0.0336 -0.236075 0.063025 -0.327175 0.076475 -0.236475 0.228675 -0.39525 0.458325 -0.39895l0.00825 -0.000075 0.009 0.000125 0.0074 0.00035 0.007675 0.000575 0.008075 0.0008 0.010775 0.001425 0.0118 0.001925 0.01575 0.003 0.014725 0.003175 0.012975 0.003 0.0256 0.00635 0.034425 0.0091 0.046375 0.012825 0.049 0.013975 0.06495 0.01885 0.15545 0.0457 0.044175 0.013375 0.0395 0.011725 0.037625 0.0109 0.035625 0.010075 0.0336 0.00925 0.02385 0.0064 0.022625 0.005925 0.02825 0.007175 0.025975 0.00635 0.017975 0.0042 0.016625 0.00375 0.015275 0.00325 0.0182 0.003625 0.012 0.00215 0.01055 0.001675 0.0062 0.00085 0.00555 0.00065 0.004875 0.000425 0.002175 0.000125 0.00385 0.000125c0.002325 0 0.004 -0.00035 0.007375 -0.001825 0.00805 -0.003525 0.0189 -0.010875 0.032475 -0.023575 0.0424 -0.039775 0.08995 -0.1121 0.1375 -0.21735 0.06045 -0.13375 0.104775 -0.30655 0.131525 -0.517575l0.00225 -0.018175 0.00365 -0.031625 0.0034 -0.03215 0.001625 -0.016275 0.001525 -0.016425 0.0029 -0.03325c0.009025 -0.109525 0.013925 -0.2278 0.014525 -0.354775l0.000075 -0.02735 -0.0002 -0.008725 -0.00035 -0.006775 -0.00085 -0.01155 -0.00175 -0.018025 -0.002425 -0.021 -0.003125 -0.02395 -0.001825 -0.013075 -0.004175 -0.028325 -0.00485 -0.0312 -0.007 -0.04305 -0.008075 -0.0475 -0.00915 -0.0519 -0.0102 -0.056275 -0.013625 -0.0732 -0.015125 -0.079375 -0.019525 -0.10025 -0.024825 -0.12455 -0.023875 -0.117575 -0.029725 -0.14405 -0.031475 -0.150175 -2.144775 -8.914225 -0.003725 -0.026725 -0.0034 -0.025375 -0.00315 -0.0245 -0.002875 -0.023625 -0.003225 -0.02835 -0.0028 -0.027075 -0.001 -0.010475 -0.0018 -0.020425 -0.001525 -0.01965 -0.00065 -0.009575 -0.001125 -0.018625 -0.000825 -0.01795 -0.0003 -0.008725 -0.000425 -0.017 -0.00015 -0.008275v-0.02305c0.00115 -0.158175 0.0198 -0.2858 0.062975 -0.38935 0.067275 -0.161325 0.200775 -0.269925 0.376975 -0.273275l0.008425 -0.000075h1.3228c0.177075 0 0.334125 0.0647 0.4554 0.189675 0.11155 0.114925 0.17815 0.2884 0.221525 0.53025l0.002425 0.01375 0.00405 0.02405 1.1637 6.15925 0.90875 -6.116375 0.00155 -0.011675c0.032975 -0.24495 0.088875 -0.427 0.181575 -0.552625l0.0056 -0.007475 0.0056 -0.007175c0.112225 -0.142175 0.269525 -0.22085 0.4485 -0.2237h0.9268ZM3.780175 2.6562c0.196725 0 0.353025 0.111325 0.437275 0.29215 0.05905 0.12675 0.0849 0.28775 0.086125 0.48995l0.00005 0.015225v14.445325c0 0.2763 -0.027925 0.4913 -0.090575 0.652475 -0.085125 0.21895 -0.24755 0.3603 -0.46885 0.36395H2.06378c-0.2256525 0 -0.388055 -0.1445 -0.47144 -0.367325 -0.058615 -0.156625 -0.0853675 -0.364775 -0.086455 -0.631975L1.50585 5.825575l-0.3224175 0.081525 -0.25444 0.0636 -0.0602675 0.014525 -0.02656 0.006125 -0.0201925 0.0042 -0.0115425 0.00185 -0.0094575 0.001 -0.01118 0.0009c-0.19709 0.014125 -0.361705 -0.088025 -0.45053 -0.2668 -0.0616025 -0.123975 -0.087995 -0.282375 -0.0892175 -0.4829L0.25 5.23485v-1.0489c0 -0.187825 0.0302925 -0.345525 0.09876 -0.4741 0.07812 -0.1467 0.2031775 -0.247425 0.360515 -0.288275l0.0094775 -0.002375 0.010925 -0.00255 2.8886225 -0.744975c0.041075 -0.0102 0.0864 -0.0157 0.135675 -0.017175l0.013525 -0.0003h0.012675Z" stroke-width="0.25"></path>
</svg>