<svg role="img" viewBox="0 0 24 24" xmlns="http://www.w3.org/2000/svg" id="Laravel--Streamline-Simple-Icons" height="24" width="24">
  <desc>
    Laravel Streamline Icon: https://streamlinehq.com
  </desc>
  <title>Laravel</title>
  <path d="M23.642 5.43a0.364 0.364 0 0 1 0.014 0.1v5.149c0 0.135 -0.073 0.26 -0.189 0.326l-4.323 2.49v4.934a0.378 0.378 0 0 1 -0.188 0.326L9.93 23.949a0.316 0.316 0 0 1 -0.066 0.027c-0.008 0.002 -0.016 0.008 -0.024 0.01a0.348 0.348 0 0 1 -0.192 0c-0.011 -0.002 -0.02 -0.008 -0.03 -0.012 -0.02 -0.008 -0.042 -0.014 -0.062 -0.025L0.533 18.755a0.376 0.376 0 0 1 -0.189 -0.326V2.974c0 -0.033 0.005 -0.066 0.014 -0.098 0.003 -0.012 0.01 -0.02 0.014 -0.032a0.369 0.369 0 0 1 0.023 -0.058c0.004 -0.013 0.015 -0.022 0.023 -0.033l0.033 -0.045c0.012 -0.01 0.025 -0.018 0.037 -0.027 0.014 -0.012 0.027 -0.024 0.041 -0.034H0.53L5.043 0.05a0.375 0.375 0 0 1 0.375 0L9.93 2.647h0.002c0.015 0.01 0.027 0.021 0.04 0.033l0.038 0.027c0.013 0.014 0.02 0.03 0.033 0.045 0.008 0.011 0.02 0.021 0.025 0.033 0.01 0.02 0.017 0.038 0.024 0.058 0.003 0.011 0.01 0.021 0.013 0.032 0.01 0.031 0.014 0.064 0.014 0.098v9.652l3.76 -2.164V5.527c0 -0.033 0.004 -0.066 0.013 -0.098 0.003 -0.01 0.01 -0.02 0.013 -0.032a0.487 0.487 0 0 1 0.024 -0.059c0.007 -0.012 0.018 -0.02 0.025 -0.033 0.012 -0.015 0.021 -0.03 0.033 -0.043 0.012 -0.012 0.025 -0.02 0.037 -0.028 0.014 -0.01 0.026 -0.023 0.041 -0.032h0.001l4.513 -2.598a0.375 0.375 0 0 1 0.375 0l4.513 2.598c0.016 0.01 0.027 0.021 0.042 0.031 0.012 0.01 0.025 0.018 0.036 0.028 0.013 0.014 0.022 0.03 0.034 0.044 0.008 0.012 0.019 0.021 0.024 0.033 0.011 0.02 0.018 0.04 0.024 0.06 0.006 0.01 0.012 0.021 0.015 0.032zm-0.74 5.032V6.179l-1.578 0.908 -2.182 1.256v4.283zm-4.51 7.75v-4.287l-2.147 1.225 -6.126 3.498v4.325zM1.093 3.624v14.588l8.273 4.761v-4.325l-4.322 -2.445 -0.002 -0.003H5.04c-0.014 -0.01 -0.025 -0.021 -0.04 -0.031 -0.011 -0.01 -0.024 -0.018 -0.035 -0.027l-0.001 -0.002c-0.013 -0.012 -0.021 -0.025 -0.031 -0.04 -0.01 -0.011 -0.021 -0.022 -0.028 -0.036h-0.002c-0.008 -0.014 -0.013 -0.031 -0.02 -0.047 -0.006 -0.016 -0.014 -0.027 -0.018 -0.043a0.49 0.49 0 0 1 -0.008 -0.057c-0.002 -0.014 -0.006 -0.027 -0.006 -0.041V5.789l-2.18 -1.257zM5.23 0.81 1.47 2.974l3.76 2.164 3.758 -2.164zm1.956 13.505 2.182 -1.256V3.624l-1.58 0.91 -2.182 1.255v9.435zm11.581 -10.95 -3.76 2.163 3.76 2.163 3.759 -2.164zm-0.376 4.978L16.21 7.087l-1.58 -0.907v4.283l2.182 1.256 1.58 0.908zm-8.65 9.654 5.514 -3.148 2.756 -1.572 -3.757 -2.163 -4.323 2.489 -3.941 2.27z" fill="#f5b48c" stroke-width="1"></path>
</svg>