<?xml version="1.0" encoding="UTF-8" standalone="no"?><!DOCTYPE svg PUBLIC "-//W3C//DTD SVG 1.1//EN" "http://www.w3.org/Graphics/SVG/1.1/DTD/svg11.dtd"><svg width="100%" height="100%" viewBox="0 0 100 100" version="1.1" xmlns="http://www.w3.org/2000/svg" xmlns:xlink="http://www.w3.org/1999/xlink" xml:space="preserve" xmlns:serif="http://www.serif.com/" style="fill-rule:evenodd;clip-rule:evenodd;stroke-linejoin:round;stroke-miterlimit:2;"><path d="M29.208,42.529l-3.933,0l-2.146,11.033l3.492,0c2.317,0 4.042,-0.438 5.175,-1.308c1.133,-0.875 1.896,-2.329 2.292,-4.371c0.383,-1.958 0.208,-3.342 -0.517,-4.146c-0.729,-0.804 -2.179,-1.208 -4.363,-1.208Zm20.792,-18.829c-27.612,0 -50,11.775 -50,26.3c0,14.525 22.388,26.304 50,26.304c27.612,0 50,-11.779 50,-26.304c0,-14.525 -22.388,-26.3 -50,-26.3Zm-13.583,31.046c-1.087,1.042 -2.396,1.825 -3.821,2.296c-1.4,0.45 -3.188,0.683 -5.354,0.683l-4.921,0l-1.363,7.004l-5.742,0l5.125,-26.358l11.042,0c3.321,0 5.742,0.871 7.267,2.617c1.525,1.742 1.983,4.175 1.375,7.3c-0.233,1.237 -0.662,2.428 -1.271,3.529c-0.596,1.063 -1.375,2.042 -2.337,2.929Zm16.767,2.979l2.262,-11.663c0.263,-1.325 0.162,-2.233 -0.283,-2.712c-0.446,-0.483 -1.4,-0.725 -2.862,-0.725l-4.55,0l-2.933,15.104l-5.7,0l5.125,-26.363l5.696,0l-1.362,7.008l5.075,0c3.196,0 5.396,0.558 6.608,1.671c1.212,1.112 1.575,2.917 1.096,5.412l-2.383,12.267l-5.787,0Zm31.654,-9.438c-0.229,1.238 -0.658,2.43 -1.271,3.529c-0.596,1.062 -1.375,2.042 -2.338,2.929c-1.088,1.038 -2.393,1.823 -3.821,2.296c-1.4,0.45 -3.188,0.683 -5.358,0.683l-4.917,0l-1.362,7.008l-5.742,0l5.125,-26.358l11.037,0c3.321,0 5.742,0.871 7.267,2.617c1.525,1.737 1.987,4.171 1.379,7.296Zm-10.812,-5.758l-3.929,0l-2.15,11.033l3.492,0c2.321,0 4.046,-0.438 5.175,-1.308c1.133,-0.875 1.896,-2.329 2.296,-4.371c0.383,-1.958 0.204,-3.342 -0.521,-4.146c-0.725,-0.804 -2.183,-1.208 -4.363,-1.208Z" style="fill:#f5b48c;fill-rule:nonzero;"/></svg>